<?xml version="1.0" encoding="utf-8"?>
<!-- Generator: Adobe Illustrator 25.2.1, SVG Export Plug-In . SVG Version: 6.00 Build 0)  -->
<svg version="1.1" id="Layer_1" xmlns="http://www.w3.org/2000/svg" xmlns:xlink="http://www.w3.org/1999/xlink" x="0px" y="0px"
	 viewBox="0 0 56.26 56.79" style="enable-background:new 0 0 56.26 56.79;" xml:space="preserve">
<style type="text/css">
	.st0{fill:#00D9C0;}
</style>
<path class="st0" d="M51.76,1.74v22.8L36.88,2.03l-0.38-0.6H19.88L4.58,24.58V1.74H1.97v53.32h2.61V32.21l14.91,22.54l0.38,0.6h0.76
	l0.03,0.04l15.84-0.04l15.27-23.09v22.79h2.61V1.74H51.76z M38.11,28.4l-9.92,13.83L18.26,28.4l9.93-13.83L38.11,28.4z M35.59,4.8
	l14.73,22.29h-9.93L29.71,12.2L35.59,4.8z M26.67,12.21L15.99,27.09H6.06L20.79,4.8L26.67,12.21z M15.99,29.71l10.69,14.88L20.8,52
	L6.06,29.71H15.99z M29.7,44.6l10.69-14.89h9.93L35.58,52L29.7,44.6z"/>
</svg>
