<svg width="946" height="1115" viewBox="0 0 946 1115" fill="none" xmlns="http://www.w3.org/2000/svg">
<path d="M595.98 555.455C624.36 605.54 633.82 641.898 633.347 674.546C632.874 707.194 621.995 736.132 611.116 777.313C599.764 818.494 588.412 871.918 557.667 878.596C526.449 884.903 476.311 844.464 422.389 823.688C368.94 802.541 311.707 801.799 245.487 774.716C179.74 747.262 104.533 693.838 101.222 640.414C97.911 586.99 166.496 533.566 240.757 489.788C314.545 446.01 394.009 411.878 456.918 427.089C520.3 441.929 567.6 505.37 595.98 555.455Z" fill="#998AF8"/>
<path d="M522.524 591.073C522.909 591.068 523.225 591.338 523.23 591.677C523.235 591.981 522.987 592.237 522.657 592.288L522.544 592.298L461.227 593.069C460.842 593.074 460.526 592.803 460.52 592.465C460.515 592.161 460.764 591.905 461.094 591.853L461.207 591.844L522.524 591.073Z" fill="#A3B5D6"/>
<path fill-rule="evenodd" clip-rule="evenodd" d="M331.706 763.101C331.84 762.741 302.458 852.869 300.975 859.469C296.93 877.482 298.73 880.362 286.725 883.251C283.651 883.993 279.732 881.879 274.312 885.499C259.481 895.411 240.21 899.14 239.511 891.852C239.51 885.139 272.752 869.489 278.597 856.625C284.671 843.26 288.573 732.241 301.159 726.25C313.745 720.259 344.885 686.701 331.706 763.101Z" fill="#B0927B"/>
<path fill-rule="evenodd" clip-rule="evenodd" d="M293.26 886.788C293.26 886.788 299.005 877.617 299.395 865.24C299.395 865.24 288.516 871.058 278.659 877.784C267.277 885.552 264.912 885.64 264.912 885.64C252.499 886.824 251.171 880.482 251.171 880.482C251.171 880.482 243.188 886.602 229.432 892.307C217.113 897.416 258.645 906.028 266.437 897.718C274.229 889.41 282.985 885.277 282.985 885.277L283.135 899.925L287.144 900.511L293.26 886.788Z" fill="#00D9C0"/>
<path fill-rule="evenodd" clip-rule="evenodd" d="M291.907 670.2L256.722 828.028L320.164 839.113C320.164 839.113 342.561 754.366 355.919 681.838C355.919 681.838 365.812 644.445 331.92 638.906C298.029 633.366 291.907 670.2 291.907 670.2Z" fill="#E4EBF7"/>
<path fill-rule="evenodd" clip-rule="evenodd" d="M331.531 636.148C398.374 628.861 447.733 628.238 463.191 631.647C463.191 631.647 495.28 637.303 489.26 659.023C481.914 685.528 447.41 685.97 447.41 685.97L335.657 693.68C326.771 694.374 297.529 697.35 295.843 667.15C294.251 638.665 330.075 636.307 331.531 636.148Z" fill="#E4EBF7"/>
<path fill-rule="evenodd" clip-rule="evenodd" d="M330.592 598.279C330.592 598.279 416.081 571.867 428.173 568.844C458.743 561.198 462.571 593.948 443.181 598.315C431.494 600.948 407.825 603.965 387.212 606.82C358.16 610.843 336.796 612.997 336.796 612.997L330.592 598.279Z" fill="#B0927B"/>
<path fill-rule="evenodd" clip-rule="evenodd" d="M482.982 391.208C482.982 391.208 435.688 395.471 436.115 408.164C436.336 414.693 450.396 421.609 443.902 423.686C418.522 431.797 446.828 434.648 430.812 441.11C406.994 450.722 422.834 466.422 448.54 465.05C475.167 463.628 463.448 481.444 509.122 475.824C534.86 472.657 542.26 469.899 560.397 465.397C578.536 460.895 588.522 438.359 565.259 427.637C550.792 420.848 537.388 421.698 528.9 410.205C520.409 398.711 512.474 391.702 500.215 392.809C495.552 389.869 482.982 391.208 482.982 391.208Z" fill="black"/>
<path fill-rule="evenodd" clip-rule="evenodd" d="M503.897 475.678C501.752 459.311 499.714 445.939 499.714 445.939L471.039 460.17L472.731 480.114C474.039 487.456 481.996 492.389 490.301 491.003C499.081 489.537 504.92 483.484 503.897 475.678Z" fill="#B0927B"/>
<path fill-rule="evenodd" clip-rule="evenodd" d="M485.196 417.2C485.196 417.2 482.016 409.803 476.249 413.389C472.123 415.952 473.223 413.847 472.294 411.854C468.845 404.447 467.691 422.686 454.329 426.506C454.106 435.795 453.527 465.487 476.351 466.643C485.231 467.094 496.604 461.534 500.518 450.95C503.07 444.051 500.945 437.107 497.832 435.722C487.575 431.163 487.766 426.461 485.196 417.2Z" fill="#B0927B"/>
<path d="M465.008 425.132C465.339 425.023 465.705 425.145 465.875 425.407L465.925 425.499L468.016 430.402L468.057 430.555L468.109 431.108C468.117 431.21 468.125 431.323 468.133 431.447C468.331 434.548 468.182 438.558 467.441 443.279L467.33 443.964L467.811 443.995C468.843 444.068 469.806 444.18 470.699 444.321L471.226 444.409C471.739 444.5 472.201 444.596 472.61 444.694L472.907 444.768C473.2 444.843 473.403 444.903 473.515 444.94C473.883 445.062 474.069 445.424 473.93 445.747C473.791 446.071 473.38 446.234 473.011 446.112L472.774 446.041C472.699 446.02 472.61 445.996 472.507 445.97C472.068 445.857 471.546 445.744 470.945 445.637C469.633 445.405 468.14 445.241 466.478 445.177C466.054 445.16 465.741 444.824 465.806 444.455C466.686 439.457 466.904 435.214 466.736 431.956L466.688 431.197L466.649 430.766L464.591 425.939C464.466 425.647 464.605 425.326 464.903 425.176L465.008 425.132Z" fill="#B0927B"/>
<path d="M480.467 447.724C480.957 447.591 481.477 447.833 481.628 448.264C481.778 448.696 481.503 449.153 481.013 449.285C480.661 449.38 480.303 449.47 479.94 449.555C477.744 450.068 475.406 450.385 473.038 450.546C471.621 450.642 470.363 450.673 469.342 450.663L468.71 450.65C468.197 450.63 467.8 450.249 467.822 449.798C467.845 449.348 468.278 448.998 468.791 449.018L469.014 449.024C470.035 449.045 471.368 449.021 472.895 448.918C475.158 448.764 477.387 448.461 479.463 447.976C479.804 447.897 480.138 447.813 480.467 447.724Z" fill="#C44343"/>
<path d="M454.849 426.043C457.324 424.566 460.789 424.141 465.296 425.346C465.787 425.477 466.064 425.933 465.915 426.365C465.766 426.796 465.247 427.04 464.756 426.909C460.778 425.846 457.896 426.199 455.892 427.394C455.221 427.794 454.82 428.18 454.659 428.404C454.384 428.784 453.811 428.898 453.377 428.656C452.944 428.415 452.815 427.91 453.09 427.529C453.379 427.128 453.95 426.579 454.849 426.043Z" fill="#253368"/>
<path d="M484.148 423.187C485.559 423.153 486.847 423.228 487.988 423.43C488.491 423.519 488.816 423.95 488.715 424.392C488.613 424.834 488.124 425.12 487.621 425.031C486.631 424.856 485.479 424.789 484.2 424.82C482.554 424.86 480.779 425.058 478.991 425.363C478.459 425.454 477.954 425.549 477.484 425.646L476.706 425.814C476.517 425.857 476.376 425.89 476.29 425.912C475.796 426.036 475.282 425.786 475.141 425.352C475 424.918 475.285 424.466 475.778 424.342L476.238 424.233L476.58 424.158C477.204 424.022 477.896 423.886 478.636 423.76C480.517 423.439 482.389 423.23 484.148 423.187Z" fill="#253368"/>
<path d="M475.886 453.987C476.279 453.976 476.608 454.248 476.62 454.594C476.631 454.905 476.382 455.17 476.045 455.228L475.93 455.239L473.448 455.306C473.055 455.316 472.727 455.045 472.714 454.699C472.704 454.388 472.953 454.123 473.289 454.065L473.405 454.054L475.886 453.987Z" fill="#DD936F"/>
<path fill-rule="evenodd" clip-rule="evenodd" d="M513.589 440.205C515.335 432.334 506.778 432.942 506.778 432.942C506.778 432.942 506.765 440.759 504.574 447.782C513.155 447.422 513.589 440.205 513.589 440.205Z" fill="#B0927B"/>
<path fill-rule="evenodd" clip-rule="evenodd" d="M423.998 586.105C423.998 586.105 425.932 531.082 427.284 520.482C430.549 494.878 446.887 489.171 459.241 499.602C474.132 512.173 456.397 589.095 456.397 589.095C456.397 589.095 454.142 599.347 440.146 599.538C423.604 599.764 423.998 586.105 423.998 586.105Z" fill="#B0927B"/>
<path fill-rule="evenodd" clip-rule="evenodd" d="M424.524 546.598C424.923 541.077 420.111 491.715 446.41 491.526C466.866 491.379 462.027 514.892 456.163 554.364L424.524 546.598Z" fill="#00D9C0"/>
<path fill-rule="evenodd" clip-rule="evenodd" d="M520.874 592.958C506.248 596.096 465.781 594.597 461.436 592.958C457.092 591.322 459.462 579.637 459.462 579.637C432.964 520.161 435.466 500.398 437.787 495.976C440.925 489.998 469.033 490.338 470.095 485.672C470.617 483.37 470.433 475.428 470.433 475.428L506.662 473.657C506.662 473.657 508.683 482.404 510.598 485.21C514.322 490.668 537.21 486.436 546.625 497.474C563.449 517.201 540.469 551.103 527.826 575.765C527.826 575.765 528.61 587.356 520.874 592.958Z" fill="#00D9C0"/>
<path fill-rule="evenodd" clip-rule="evenodd" d="M467.428 675.976L436.526 647.563C436.526 647.563 443.19 615.882 460.312 602.081L521.386 600.198C521.386 600.198 547.592 616.246 544.743 655.127L497.893 676.2L467.428 675.976Z" fill="#E4EBF7"/>
<path fill-rule="evenodd" clip-rule="evenodd" d="M522.814 600.825L460.314 602.081L461.867 593.669L520.747 592.106L522.814 600.825Z" fill="#E4EBF7"/>
<path d="M482.093 602.099C482.475 602.138 482.749 602.442 482.705 602.778C481.998 608.146 481.463 613.98 481.086 620.211C480.241 634.19 480.227 649.066 480.733 663.227L480.828 665.719C480.911 667.776 480.999 669.654 481.088 671.327L481.254 674.2C481.276 674.538 480.983 674.828 480.599 674.847C480.215 674.867 479.885 674.609 479.863 674.272L479.789 673.071L479.663 670.746C479.596 669.449 479.53 668.039 479.467 666.527L479.436 665.762C478.835 650.829 478.798 634.989 479.695 620.146C480.073 613.891 480.61 608.032 481.321 602.637C481.361 602.334 481.644 602.109 481.979 602.095L482.093 602.099Z" fill="#A3B5D6"/>
<path d="M522.633 600.648C523.018 600.642 523.335 600.912 523.342 601.25C523.348 601.554 523.1 601.811 522.77 601.863L522.658 601.873L461.405 602.814C461.021 602.82 460.703 602.55 460.697 602.212C460.691 601.908 460.938 601.651 461.268 601.599L461.381 601.589L522.633 600.648Z" fill="#A3B5D6"/>
<path fill-rule="evenodd" clip-rule="evenodd" d="M461.701 757.51C461.6 757.115 490.489 854.21 493.219 861C500.675 879.529 504.12 881.318 494.861 889.741C492.489 891.897 487.567 891.831 484.826 897.768C477.32 914.013 461.89 926.697 456.723 920.321C452.553 914.139 473.451 883.774 470.848 869.122C468.146 853.901 402.826 749.796 410.696 738.237C418.566 726.678 426.411 680.832 461.701 757.51Z" fill="#B0927B"/>
<path fill-rule="evenodd" clip-rule="evenodd" d="M503.073 890.949C503.073 890.949 502.669 879.746 495.348 868.161C495.348 868.161 488.939 878.74 484.038 889.667C478.378 902.281 476.255 903.498 476.255 903.498C465.562 910.547 460.398 905.343 460.398 905.343C460.398 905.343 456.847 914.81 447.721 926.668C439.549 937.284 483.141 925.283 485.158 913.889C487.177 902.497 492.673 894.488 492.673 894.488L501.904 907.906L505.959 906.521L503.073 890.949Z" fill="#00D9C0"/>
<path fill-rule="evenodd" clip-rule="evenodd" d="M365.236 680.495L419.055 846.03L485.677 829.442C485.677 829.442 460.119 739.058 432.709 664.193C432.709 664.193 421.442 624.309 386.063 633.534C350.685 642.759 365.236 680.495 365.236 680.495Z" fill="#E4EBF7"/>
<path fill-rule="evenodd" clip-rule="evenodd" d="M400.314 630.732C474.453 621.144 497.697 621.265 514.986 624.711C514.986 624.711 550.84 630.292 544.768 654.584C537.355 684.229 498.991 685.485 498.991 685.485L406.551 694.63C396.688 695.602 361.507 697.643 361.507 666.006C361.507 634.278 398.7 630.941 400.314 630.732Z" fill="#E4EBF7"/>
<path fill-rule="evenodd" clip-rule="evenodd" d="M524.075 575.684C524.075 575.684 512.156 528.42 512.614 517.374C513.718 490.694 534.915 488.004 545.736 499.898C554.104 509.095 559.332 578.536 559.332 578.536C559.332 578.536 556.145 590.415 542.199 591.642C525.715 593.089 524.075 575.684 524.075 575.684Z" fill="#B0927B"/>
<path fill-rule="evenodd" clip-rule="evenodd" d="M533.532 490.7C548.195 493.362 553.819 506.089 555.149 542.206L516.448 547.724C516.361 542.192 490.997 486.715 536.616 491.221" fill="#00D9C0"/>
<path fill-rule="evenodd" clip-rule="evenodd" d="M428.984 600.018C428.984 600.018 521.491 567.086 533.753 564.657C558.633 559.728 567.335 585.547 546.499 593.199C519.678 603.049 433.623 617.715 433.623 617.715L428.984 600.018Z" fill="#B0927B"/>
<path d="M522.967 497.497C523.32 497.361 523.73 497.503 523.885 497.813C524.039 498.123 523.878 498.484 523.526 498.619C520.44 499.807 517.938 503.021 516.024 507.647C515.137 509.789 514.437 512.09 513.903 514.391C513.754 515.036 513.627 515.643 513.52 516.204L513.389 516.93L513.316 517.38L517.141 547.656C517.179 547.959 516.959 548.234 516.636 548.313L516.525 548.332C516.181 548.366 515.868 548.173 515.778 547.889L515.756 547.791L511.922 517.441L511.923 517.298L512.011 516.75L512.068 516.424C512.191 515.736 512.347 514.971 512.538 514.146C513.084 511.79 513.802 509.433 514.715 507.228C516.748 502.316 519.442 498.853 522.967 497.497Z" fill="#253368"/>
<path d="M502.159 486.828C502.543 486.816 502.865 487.081 502.879 487.419C502.89 487.723 502.648 487.983 502.319 488.041L502.206 488.052L475.331 488.859C474.947 488.871 474.624 488.606 474.611 488.268C474.599 487.964 474.842 487.704 475.171 487.646L475.284 487.635L502.159 486.828Z" fill="#253368"/>
<path d="M445.627 506.675C445.955 506.579 446.308 506.71 446.464 506.971L446.508 507.063L448.599 512.58C448.637 512.678 448.645 512.782 448.624 512.883L448.594 512.982L443.184 526.118L443.083 526.308C443.04 526.394 442.988 526.502 442.929 526.633C442.728 527.077 442.525 527.6 442.335 528.199C440.073 535.34 441.629 544.126 449.917 553.751C450.149 554.021 450.089 554.405 449.782 554.609C449.475 554.813 449.038 554.76 448.806 554.491C440.245 544.548 438.618 535.366 440.993 527.871C441.197 527.228 441.416 526.663 441.635 526.178L441.789 525.853C441.833 525.764 441.868 525.698 441.89 525.66L441.908 525.632L447.2 512.765L445.186 507.45C445.077 507.161 445.226 506.851 445.523 506.714L445.627 506.675Z" fill="#253368"/>
<path d="M501.094 619.271C501.476 619.23 501.823 619.469 501.87 619.805C501.912 620.107 501.697 620.384 501.375 620.467L501.264 620.487L395.391 631.92C395.009 631.961 394.661 631.723 394.615 631.387C394.572 631.085 394.788 630.807 395.11 630.725L395.221 630.704L501.094 619.271Z" fill="#A3B5D6"/>
<path fill-rule="evenodd" clip-rule="evenodd" d="M392.708 650.776L500.999 635.702L393.679 607.143L304.486 627.462L392.708 650.776Z" fill="#CCD7EE"/>
<path fill-rule="evenodd" clip-rule="evenodd" d="M388.625 644.14L467.274 633.192L391.185 612.32L324.55 627.206L388.625 644.14Z" fill="#4E5C93"/>
<path fill-rule="evenodd" clip-rule="evenodd" d="M500.933 640.618L501.021 635.736L390.5 650.337L392.372 655.551L500.933 640.618Z" fill="#253368"/>
<path d="M376.173 616.666C376.25 616.481 376.464 616.375 376.678 616.403L376.769 616.423L438.663 636.378C438.904 636.455 439.028 636.69 438.94 636.901C438.862 637.087 438.648 637.193 438.435 637.165L438.344 637.144L376.449 617.19C376.208 617.113 376.085 616.878 376.173 616.666Z" fill="#CCD7EE"/>
<path d="M384.382 613.773C384.455 613.587 384.667 613.477 384.881 613.503L384.973 613.522L454.18 634.684C454.423 634.758 454.551 634.991 454.466 635.204C454.393 635.391 454.181 635.5 453.967 635.475L453.875 635.456L384.668 614.293C384.426 614.219 384.298 613.986 384.382 613.773Z" fill="#CCD7EE"/>
<path d="M375.239 621.614C375.319 621.43 375.534 621.326 375.747 621.357L375.838 621.378L427.816 638.86C428.056 638.94 428.176 639.176 428.084 639.387C428.004 639.571 427.788 639.675 427.575 639.644L427.484 639.622L375.506 622.141C375.267 622.061 375.147 621.825 375.239 621.614Z" fill="#CCD7EE"/>
<path d="M360.998 622.865C361.078 622.68 361.293 622.577 361.506 622.607L361.597 622.629L413.575 640.109C413.815 640.189 413.935 640.425 413.843 640.636C413.763 640.82 413.547 640.924 413.334 640.893L413.244 640.872L361.266 623.392C361.026 623.311 360.906 623.075 360.998 622.865Z" fill="#CCD7EE"/>
<path d="M347.845 624.833C347.925 624.649 348.141 624.545 348.354 624.576L348.445 624.597L400.423 642.077C400.662 642.158 400.782 642.394 400.691 642.604C400.61 642.789 400.395 642.892 400.182 642.861L400.091 642.84L348.113 625.36C347.873 625.28 347.753 625.043 347.845 624.833Z" fill="#CCD7EE"/>
<path d="M454.411 630.194C454.665 630.166 454.897 630.326 454.929 630.549C454.956 630.745 454.821 630.926 454.616 630.986L454.525 631.005L387.221 638.307C386.966 638.335 386.735 638.176 386.703 637.952C386.676 637.756 386.811 637.575 387.015 637.515L387.107 637.497L454.411 630.194Z" fill="#CCD7EE"/>
<path d="M439.482 625.565C439.736 625.538 439.968 625.697 439.999 625.92C440.027 626.116 439.892 626.297 439.687 626.357L439.595 626.376L372.292 633.678C372.037 633.706 371.805 633.547 371.774 633.323C371.746 633.127 371.881 632.947 372.086 632.886L372.178 632.868L439.482 625.565Z" fill="#CCD7EE"/>
<path d="M420.976 622.477C421.231 622.45 421.463 622.609 421.494 622.833C421.522 623.028 421.387 623.209 421.182 623.269L421.09 623.288L353.786 630.59C353.532 630.618 353.3 630.459 353.269 630.235C353.241 630.039 353.376 629.859 353.581 629.798L353.673 629.78L420.976 622.477Z" fill="#CCD7EE"/>
<path d="M408.459 614.287C408.714 614.259 408.946 614.418 408.977 614.642C409.005 614.838 408.87 615.019 408.665 615.079L408.573 615.098L341.27 622.4C341.015 622.428 340.783 622.269 340.752 622.045C340.724 621.849 340.859 621.668 341.064 621.608L341.156 621.589L408.459 614.287Z" fill="#CCD7EE"/>
<path fill-rule="evenodd" clip-rule="evenodd" d="M392.285 655.553L387.418 655.926L303.923 632.859L270.18 508.743L360.11 524.53L392.285 655.553Z" fill="#253368"/>
<path fill-rule="evenodd" clip-rule="evenodd" d="M387.245 655.933L299.196 631.644C298.392 631.422 297.779 630.846 297.582 630.124L264.999 510.845C264.59 509.346 266.087 507.979 267.805 508.284L353.111 523.365C354.046 523.53 354.781 524.167 354.984 524.986L387.245 655.933Z" fill="#4E5C93"/>
<path fill-rule="evenodd" clip-rule="evenodd" d="M439.142 614.603C436.49 623.315 414.422 620.357 414.422 620.357L403.604 628.102C401.892 629.141 401.156 628.127 400.224 628.314C397.711 628.816 397.109 626.495 397.109 626.495C396.15 626.307 394.904 627.17 393.985 625.146C393.985 625.146 392.196 625.388 391.585 623.534C391.356 622.845 394.809 613.515 396.871 608.055C397.777 605.657 400.134 603.916 402.976 603.541L429.385 600.044C429.385 600.044 442.712 602.881 439.142 614.603Z" fill="#B0927B"/>
<path d="M415.996 614.18C416.358 614.044 416.776 614.192 416.931 614.51C417.07 614.796 416.947 615.123 416.658 615.284L416.555 615.332L408.786 618.248L401.015 627.656C400.81 627.905 400.435 627.982 400.131 627.853L400.021 627.795C399.738 627.614 399.65 627.284 399.797 627.017L399.863 626.92L407.749 617.373C407.8 617.312 407.862 617.26 407.933 617.219L408.046 617.165L415.996 614.18Z" fill="#B0927B"/>
<path d="M410.681 611.308C411.024 611.138 411.458 611.245 411.651 611.546C411.825 611.818 411.744 612.154 411.476 612.343L411.38 612.4L404.246 615.932L397.915 625.67C397.739 625.941 397.369 626.052 397.048 625.947L396.943 625.903C396.636 625.749 396.509 625.423 396.629 625.141L396.678 625.049L403.107 615.161C403.149 615.095 403.205 615.037 403.27 614.989L403.376 614.926L410.681 611.308Z" fill="#B0927B"/>
<path d="M405.526 608.657C405.834 608.442 406.282 608.488 406.526 608.759C406.743 609 406.726 609.338 406.503 609.561L406.41 609.639L401.608 612.979L395.83 623.434C395.675 623.714 395.314 623.847 394.986 623.76L394.878 623.723C394.559 623.587 394.408 623.27 394.506 622.981L394.549 622.886L400.399 612.302C400.431 612.246 400.471 612.194 400.52 612.148L400.598 612.085L405.526 608.657Z" fill="#B0927B"/>
<path d="M469.367 435.547C469.367 438.82 466.327 441.58 462.438 441.58C458.548 441.58 455.508 438.82 455.508 435.547C455.508 432.273 458.548 429.514 462.438 429.514C466.327 429.514 469.367 432.273 469.367 435.547Z" stroke="black"/>
<path d="M486.703 434.458C486.703 437.732 483.663 440.491 479.773 440.491C475.884 440.491 472.844 437.732 472.844 434.458C472.844 431.184 475.884 428.425 479.773 428.425C483.663 428.425 486.703 431.184 486.703 434.458Z" stroke="black"/>
<line x1="467.391" y1="433.958" x2="472.344" y2="433.958" stroke="black"/>
</svg>
